# xmcd
#
# Track frame offsets:
# 150
# 18315
# 37256
# 64110
# 82381
# 104768
# 123484
# 137652
# 155300
# 171745
#
# Disc length: 2590 seconds
#
#
# Revision: 0
# Processed by: cddbd v1.5.2PL0 Copyright (c) Steve Scherf et al.
# Submitted via: Nero 7, 11, 10, 0 
#
DISCID=950a1c0a
DTITLE=Tony Vega Band - Glory Baby
DYEAR=2007
DGENRE=Blues
TTITLE0=Going Backwards
TTITLE1=Blackwater Roll
TTITLE2=Dixieland
TTITLE3=Blood On The Bus
TTITLE4=Phonecall From Leavenworth
TTITLE5=Send Me
TTITLE6=Remember
TTITLE7=High Expectations
TTITLE8=King Friday
TTITLE9=Lowdown
EXTD=
EXTT0=Going Backwards
EXTT1=Blackwater Roll
EXTT2=Dixieland
EXTT3=Blood On The Bus
EXTT4=Phonecall From Leavenworth
EXTT5=Send Me
EXTT6=Remember
EXTT7=High Expectations
EXTT8=King Friday
EXTT9=Lowdown
PLAYORDER=
